<svg viewBox="0 0 30 30" xmlns="http://www.w3.org/2000/svg"><path d="M9.041 4.078l-.5 1.7s-.667-.552-2.458.541c0 0-.333 1.384 1.958 1.801 0 0-2.292 9.667 3.083 12.5 0 0-.375 1.708.75 1.958l-.708 3.542-2.196-.208s-.941.542.711.917l.541.292-.541.667s-.239 1.333 1.082.167l.945-.917h1.417s1.792-.458.208-1.042l-1.042-.042.583-2.792 1.112-1.167h1.597l.708 1.333.292.583-.25 2.5-.208.458-1.031-.208-.547.328.047.484.594.406.25.266-.266.625.047.531s.594-.016.625-.078.813-1.109.813-1.109l1.359-.547 1.141-.328-.781-.563-.594.094-.359.031.125-2.469.078-.703s1.906-1.031 1.25-2.156c0 0 3.719-.484 4.453-3.203l-.547-.203.547-.719s1.313-3.469.5-4.406l-1.5.531-1.047.25-1.313-.375-4.609-1.594s-.969-6.016-2.453-7.203c0 0 2.578-1.469.844-2.641 0 0-1.125-.297-1.453.359 0 0 0-2.625-2.156-1.5l-.461 1.033S7.562.38 7.249 1.646c0 0-.651 1.911 1.792 2.432z" fill="#f0c419"/><path d="M23.278 17.88c1.237-1.546.995-3.691.984-3.767-.015-1-.177-1.487-.544-1.628-.252-.101-.497.026-.604.143-.657.596-1.459.691-1.918.691-.228 0-.369-.026-.369-.021-2.011-.871-4.284-1.569-5-1.781-.324-2.656-2.029-6.196-2.123-6.383l-.213-.337c.542-.274.912-.633 1.1-1.069a1.6 1.6 0 0 0 .05-1.171c-.186-.58-.5-.939-.933-1.067-.353-.106-.705-.028-.987.088C12.611.555 11.86.314 11.85.312c-.647-.272-1.203-.274-1.656-.01-.393.233-.612.62-.732.938C8.672.76 8.024.637 7.529.876c-.706.344-.755 1.264-.757 1.318 0 1.284.987 1.931 1.78 2.183-.146.306-.281.67-.369.926-1.737.114-2.393 1.174-2.422 1.22a.35.35 0 0 0-.014.334c.362.739 1.314 1.209 1.795 1.407-.228 1.556-.316 5.159-.319 5.313-.134 2.728.859 4.26 1.056 4.536.546 1.319 1.991 2.457 2.504 2.831-.101.979.331 1.588.712 1.877l-.56 2.832c-.49-.031-1.347-.076-1.633-.035-.319.046-.983.14-1 .628-.02.577 1.008.813 1.086.83.178.037.304.069.389.09l-.065.081c-.12.149-.189.238-.227.34-.087.236-.351.956.162 1.208a.568.568 0 0 0 .254.056c.461 0 1.004-.451 1.112-.621.682-1.083 1.217-.988 1.395-.958 1.307.228 1.689-.19 1.805-.468.041-.096.136-.32.013-.563-.138-.271-.453-.374-.678-.428a10.04 10.04 0 0 0-.78-.11l.49-2.573c.452-.19.743-.584.89-.833l1.384.042c.068.884.494 1.362.759 1.577l-.174 1.714-.121.893c-.193-.021-.426-.052-.623-.037-1.002.012-1.167.463-1.177.73-.015.444.441.935.78.962a.825.825 0 0 1 .065.008c-.028.049-.06.1-.082.136-.1.162-.157.26-.181.364-.056.246-.225.994.316 1.178.057.02.116.028.176.028.481 0 1.016-.571 1.105-.764.539-1.163 1.081-1.139 1.262-1.131 1.322.065 1.649-.405 1.729-.695.028-.101.094-.335-.06-.561-.171-.252-.497-.313-.727-.336a9.406 9.406 0 0 0-.806-.01l.002-.172.147-2.223c.991-.498 1.268-1.543 1.279-2.26 3.294-.369 4.132-2.309 4.301-2.884.22-.442.113-.699-.015-.837a.556.556 0 0 0-.209-.139zm-.433.746c-.155.515-.904 2.212-4.035 2.448a.35.35 0 0 0-.321.391c.008.062.165 1.514-1.027 1.976a.352.352 0 0 0-.224.303l-.162 2.434.002.012-.002.008-.007.554a.343.343 0 0 0 .104.253.344.344 0 0 0 .256.101c.337-.009.928-.017 1.077-.002.08.009.135.021.173.03-.052.047-.291.196-1.011.167-.778-.027-1.439.48-1.921 1.523a1.438 1.438 0 0 1-.334.304c.005-.063.017-.149.042-.263.018-.043.059-.106.102-.176.178-.289.361-.589.179-.852a.794.794 0 0 0-.64-.341.904.904 0 0 1-.214-.218c.001-.001.091-.087.501-.092.316-.008.858.074.863.075a.351.351 0 0 0 .398-.299l.084-.619a.343.343 0 0 0 .033-.107l.249-2.453a.359.359 0 0 0-.188-.346c-.025-.014-.63-.353-.598-1.427a.35.35 0 0 0-.339-.36l-1.934-.059a.342.342 0 0 0-.333.212c-.003.007-.267.606-.746.72a.351.351 0 0 0-.263.275l-.6 3.146a.353.353 0 0 0 .308.414c.336.034.923.102 1.069.137.078.019.132.037.167.052-.055.039-.3.164-1.024.036-.782-.135-1.49.291-2.101 1.263-.055.066-.23.189-.371.259.013-.063.036-.146.076-.255.023-.041.073-.099.124-.162.212-.264.433-.536.286-.822-.126-.246-.453-.356-1.076-.486a1.08 1.08 0 0 1-.159-.053l.094-.014c.226-.037 1.22.021 1.792.061a.346.346 0 0 0 .369-.281l.666-3.372a.357.357 0 0 0-.198-.386c-.075-.035-.724-.379-.527-1.491a.352.352 0 0 0-.149-.351c-.019-.013-1.884-1.278-2.442-2.681a.389.389 0 0 0-.048-.084c-.011-.015-1.074-1.431-.941-4.124.001-.042.103-4.226.356-5.497a.35.35 0 0 0-.235-.401c-.328-.106-1.175-.471-1.558-.977.237-.254.827-.723 1.956-.735.15-.002.283-.1.329-.243.176-.547.448-1.225.581-1.368a.351.351 0 0 0-.21-.586c-.068-.009-1.67-.237-1.671-1.586 0-.005.039-.55.365-.706.186-.09.644-.131 1.634.581a.352.352 0 0 0 .552-.243c0-.007.092-.681.526-.935.252-.147.601-.131 1.059.061.055.02.535.22.407 1.179a.35.35 0 0 0 .568.318c.146-.118.597-.402.93-.303.197.059.353.264.473.636.001.003.114.307-.036.653-.153.354-.521.644-1.095.863a.352.352 0 0 0-.172.514l.411.646c.018.038 1.829 3.794 2.062 6.345a.35.35 0 0 0 .253.305c.028.008 2.772.791 5.209 1.838.065.013 1.593.317 2.854-.721.038.139.084.409.093.917.003.027.296 2.687-1.514 3.91a.351.351 0 0 0-.112.456c.085.157.276.229.442.157.162-.066.357-.121.495-.144a1.162 1.162 0 0 0-.031.088z"/><path d="M10.221 5.237a.542.542 0 0 0 0 1.082.542.542 0 0 0 0-1.082zm-.159.541a.16.16 0 1 1 .319 0c0 .176-.319.176-.319 0z"/></svg>